:SAMPLES-PER-SECOND 30
:FULLY-SPECIFIED
:DEGREES
252
root  31.5047 36.3137 4.8485 111.343 84.3386 119.513
RightUpLeg  0.796909 -4.38508 -7.88006
RightLeg  68.0212 1.769 4.21327
RightFoot  7.18867 -0.465538 2.86993
RightToes  2.91037e-010 0 -3.6325e-017
Spine  13.7675 1.70285 -0.750441
Spine1  6.83894 2.73826 -6.39301
HEad  -28.5205 -4.09853 1.55817
LeftShoulder1  -0.274484 4.26685 -29.8361
LeftArm  -15.7333 13.9931 -26.5761
LeftForeArm  107.036 -74.7419 -133.177
LeftHand  0.0891832 1.66932 -3.14535
RightShoulder  -0.56447 -5.16031 27.3096
RightArm  -9.03334 -21.0655 38.1957
RightForeArm  103.247 73.5783 136.176
RightHand  -0.482087 4.62787 -5.88645
LeftUpLeg  -20.7361 -0.447117 -6.99502
LeftLeg  36.1689 -0.458602 0.0132275
LeftFoot  -5.42812 -0.280234 5.97853
LeftToes  -7.53974e-010 3.3384e-011 -1.25048e-011
253
root  32.9769 36.3125 4.67841 106.535 84.0905 114.952
RightUpLeg  -7.16998 -4.42646 -8.37985
RightLeg  74.2192 1.72417 5.88933
RightFoot  2.93549 -0.560643 4.60553
RightToes  2.91037e-010 0 -3.6325e-017
Spine  16.1082 1.46636 -0.806838
Spine1  5.49447 2.53966 -7.21105
HEad  -30.7358 -3.62407 1.80023
LeftShoulder1  -0.240428 4.17329 -29.7773
LeftArm  -18.0121 12.7962 -26.7214
LeftForeArm  108.273 -74.5802 -133.937
LeftHand  0.180706 1.36061 -5.49197
RightShoulder  -0.574331 -5.20667 26.9774
RightArm  -9.39895 -19.25 37.7937
RightForeArm  100.567 73.3607 136.404
RightHand  -0.537136 4.22956 -6.75954
LeftUpLeg  -18.6775 0.0472419 -7.56557
LeftLeg  38.0095 -0.58324 -0.0932694
LeftFoot  -9.07555 -0.0583672 5.71744
LeftToes  -7.53974e-010 3.3384e-011 -1.25048e-011
254
root  34.4196 36.3868 4.4717 106.768 84.012 115.47
RightUpLeg  -14.7179 -5.01012 -8.2937
RightLeg  74.5025 2.08317 7.45924
RightFoot  1.10217 -0.430579 4.00426
RightToes  2.91037e-010 0 -3.6325e-017
Spine  18.5297 0.843467 -0.513862
Spine1  4.36087 1.97976 -7.43465
HEad  -33.6882 -2.72951 1.33269
LeftShoulder1  -0.256123 4.21338 -29.8662
LeftArm  -20.5715 11.1801 -26.9599
LeftForeArm  110.936 -74.0188 -136.18
LeftHand  0.259231 0.904646 -6.92012
RightShoulder  -0.559148 -5.19593 26.2361
RightArm  -10.0976 -16.9603 37.717
RightForeArm  98.2685 73.266 136.341
RightHand  -0.574362 5.14345 -6.63297
LeftUpLeg  -16.1971 0.148268 -7.96245
LeftLeg  38.954 -0.254262 0.17709
LeftFoot  -11.9793 0.103463 5.59933
LeftToes  -7.53974e-010 3.3384e-011 -1.25048e-011
255
root  35.8842 36.4563 4.29889 105.859 83.9141 113.902
RightUpLeg  -21.9779 -5.10837 -7.81721
RightLeg  69.4224 2.40364 6.42179
RightFoot  -1.14505 -0.273816 2.96939
RightToes  2.91037e-010 0 -3.6325e-017
Spine  19.2545 0.640399 -0.637494
Spine1  4.17866 1.66406 -6.17065
HEad  -36.5971 -2.53231 0.769395
LeftShoulder1  -0.279771 4.25115 -31.108
LeftArm  -22.915 8.15832 -26.6804
LeftForeArm  115.126 -73.1925 -139.132
LeftHand  0.32643 0.259674 -7.47064
RightShoulder  -0.466317 -5.00094 24.3189
RightArm  -11.9489 -15.0669 38.4282
RightForeArm  98.4108 72.4443 138.631
RightHand  -0.590091 4.28654 -7.32461
LeftUpLeg  -14.4017 0.903397 -8.23153
LeftLeg  39.3304 -0.650312 -0.17224
LeftFoot  -14.826 0.256679 5.51588
LeftToes  -7.53974e-010 3.3384e-011 -1.25048e-011
256
root  37.3707 36.561 4.17217 118.333 84.1873 126.286
RightUpLeg  -25.8929 -5.66375 -6.42275
RightLeg  58.6396 2.16227 3.44143
RightFoot  -2.88513 -0.192244 2.36644
RightToes  2.91037e-010 0 -3.6325e-017
Spine  21.2514 -0.44732 0.963467
Spine1  1.70578 0.910715 -6.60184
HEad  -37.8527 -2.17161 0.75948
LeftShoulder1  -0.0535291 3.65618 -29.5306
LeftArm  -24.4886 7.14915 -27.3813
LeftForeArm  122.445 -71.5282 -144.121
LeftHand  0.369341 -0.554613 -7.19404
RightShoulder  -0.429372 -4.87456 24.4127
RightArm  -13.5695 -13.8828 37.7104
RightForeArm  100.373 71.1965 141.891
RightHand  -0.46574 3.42608 -6.39577
LeftUpLeg  -11.7479 1.04189 -7.39733
LeftLeg  39.3886 -1.43889 -0.870855
LeftFoot  -17.7412 0.41333 5.47409
LeftToes  -7.53974e-010 3.3384e-011 -1.25048e-011
257
root  38.8961 36.5316 4.0451 126.761 83.5837 134.127
RightUpLeg  -28.0347 -5.83084 -6.25358
RightLeg  44.1306 0.94398 0.705945
RightFoot  -3.6592 -0.242282 3.22504
RightToes  2.91037e-010 0 -3.6325e-017
Spine  21.4259 -1.06514 1.68578
Spine1  0.844333 0.403197 -6.23588
HEad  -39.4751 -2.1077 0.454826
LeftShoulder1  0.00824971 3.48067 -29.3197
LeftArm  -25.3817 3.74373 -27.2745
LeftForeArm  127.686 -70.0614 -147.551
LeftHand  0.259806 -0.252304 -5.36569
RightShoulder  -0.406115 -4.85806 23.0605
RightArm  -15.8401 -11.8652 37.8902
RightForeArm  101.156 69.6272 145.192
RightHand  -0.438353 2.43365 -6.68767
LeftUpLeg  -9.76387 0.672132 -7.48926
LeftLeg  39.6075 -1.61633 -1.03906
LeftFoot  -20.075 0.565923 5.81421
LeftToes  -7.53974e-010 3.3384e-011 -1.25048e-011
258
root  40.5152 36.3964 3.92856 130.316 82.2435 137.122
RightUpLeg  -28.1068 -6.17802 -7.29882
RightLeg  27.5108 0.045385 -0.233871
RightFoot  -3.4203 -0.256183 3.35205
RightToes  2.91037e-010 0 -3.6325e-017
Spine  20.8764 -1.51648 1.63978
Spine1  0.388698 -0.108338 -5.83403
HEad  -40.6865 -2.56096 0.464244
LeftShoulder1  0.0506599 3.35863 -28.5089
LeftArm  -25.8674 -0.47513 -27.5778
LeftForeArm  131.267 -69.1278 -149.522
LeftHand  0.196484 -0.121678 -4.14094
RightShoulder  -0.381373 -4.84753 21.3755
RightArm  -18.5936 -9.65317 37.9643
RightForeArm  103.009 68.0181 148.135
RightHand  -0.377685 1.96463 -6.13773
LeftUpLeg  -7.6161 -0.377414 -8.54203
LeftLeg  39.9493 -1.21691 -0.699982
LeftFoot  -22.3213 0.749946 6.39498
LeftToes  -7.53974e-010 3.3384e-011 -1.25048e-011
259
root  42.2521 36.1932 3.86388 133.108 80.8612 139.733
RightUpLeg  -27.4733 -6.07774 -8.36858
RightLeg  14.0238 2.00768 -0.0338911
RightFoot  -4.15022 -0.235305 3.36869
RightToes  2.91037e-010 0 -3.6325e-017
Spine  19.6683 -1.80185 1.97247
Spine1  0.526004 -0.345564 -5.78562
HEad  -41.2339 -2.34831 0.0117409
LeftShoulder1  0.181963 2.95457 -27.3727
LeftArm  -26.2992 -7.00383 -28.741
LeftForeArm  127.073 -70.6961 -146.378
LeftHand  0.133668 0.392092 -3.21129
RightShoulder  -0.3136 -4.68616 19.4294
RightArm  -21.6042 -7.39025 37.9607
RightForeArm  102.383 66.6678 150.125
RightHand  -0.472651 2.14229 -7.474
LeftUpLeg  -4.68453 -1.3361 -9.40067
LeftLeg  40.0776 -1.04876 -0.55323
LeftFoot  -24.8996 0.924953 6.51975
LeftToes  -7.53974e-010 3.3384e-011 -1.25048e-011
260
root  44.1239 35.8644 3.84252 131.124 79.8142 138.367
RightUpLeg  -26.8749 -6.90606 -8.7548
RightLeg  8.25475 6.48102 -0.750724
RightFoot  -5.99422 -0.283636 4.86588
RightToes  2.91037e-010 0 -3.6325e-017
Spine  17.5801 -1.82715 2.02168
Spine1  1.99579 -0.219791 -6.28714
HEad  -41.6011 -1.85664 -0.874755
LeftShoulder1  0.316095 2.51055 -25.4249
LeftArm  -27.249 -11.8369 -29.0407
LeftForeArm  124.787 -71.6435 -144.206
LeftHand  0.0977202 0.873444 -2.581
RightShoulder  -0.211218 -4.35318 17.2023
RightArm  -24.4315 -2.66342 37.99
RightForeArm  100.21 66.5282 150.143
RightHand  -0.541523 1.34027 -9.46317
LeftUpLeg  -0.984262 -1.27334 -10.1631
LeftLeg  40.9053 -1.1725 -0.687442
LeftFoot  -27.4438 0.97986 5.76967
LeftToes  -7.53974e-010 3.3384e-011 -1.25048e-011
261
root  46.0653 35.5532 3.85918 131.141 79.7827 139.188
RightUpLeg  -26.7451 -5.97639 -8.57799
RightLeg  9.63487 6.83804 -0.778537
RightFoot  -2.44639 -0.224318 3.79334
RightToes  2.91037e-010 0 -3.6325e-017
Spine  18.0045 -1.90062 2.97893
Spine1  -0.496718 -0.336869 -6.09379
HEad  -39.7595 -1.24626 -2.85493
LeftShoulder1  0.300464 2.51681 -24.9195
LeftArm  -27.9743 -16.121 -26.9474
LeftForeArm  118.079 -73.1007 -139.878
LeftHand  0.0187952 2.4217 -1.43144
RightShoulder  -0.0782926 -3.86211 14.3451
RightArm  -26.55 0.676498 37.433
RightForeArm  99.7693 66.6222 149.95
RightHand  -0.425301 0.195585 -8.90412
LeftUpLeg  2.29026 -0.181456 -9.30119
LeftLeg  43.1103 -2.12342 -1.7257
LeftFoot  -28.7462 0.773602 3.95724
LeftToes  -7.53974e-010 3.3384e-011 -1.25048e-011
262
root  47.9039 35.2045 3.88526 136.975 80.9125 145.665
RightUpLeg  -28.7171 -3.73097 -7.80798
RightLeg  18.0248 4.12819 0.741129
RightFoot  7.68398 0.0108983 -0.0354774
RightToes  2.91037e-010 0 -3.6325e-017
Spine  13.7959 -1.75061 5.59547
Spine1  4.68655 0.225565 -5.5617
HEad  -40.9399 -2.17343 -4.41138
LeftShoulder1  0.559293 1.46459 -20.7976
LeftArm  -31.1413 -21.1429 -28.097
LeftForeArm  110.347 -74.9206 -133.147
LeftHand  -0.00737332 1.71628 -0.0206237
RightShoulder  -0.0868932 -3.9265 11.7387
RightArm  -30.1072 8.64189 36.285
RightForeArm  94.0608 68.478 146.645
RightHand  -0.417775 0.15781 -8.79185
LeftUpLeg  2.87399 1.27827 -6.12439
LeftLeg  49.6148 -3.71221 -4.35034
LeftFoot  -26.8367 0.227088 0.312354
LeftToes  -7.53974e-010 3.3384e-011 -1.25048e-011
